<svg xmlns="http://www.w3.org/2000/svg" version="1.1" xmlns:xlink="http://www.w3.org/1999/xlink" xmlns:svgjs="http://svgjs.dev/svgjs" width="100%" height="100%" viewBox="0 0 1000 600"><rect width="1000" height="600" x="0" y="0" fill="#00000"/><g><circle r="166.66666666666666" cx="355.5968882242838" cy="377.81911086831735" fill="#ffffff" transform="matrix(0.6616199480137295,0,0,0.6616199480137295,0,50.02733457646096)"/><path d="M367.785755066341 452.8191178438776L367.785755066341 452.8191178438776Q356.051809466583 452.8191178438776 349.1494885255489 449.2110864428825Q342.27854177061045 445.6030550418874 339.3293682776232 436.6614120046387Q336.38019478463593 427.7511431534856 336.38019478463593 411.49931475595986L336.38019478463593 411.49931475595986L336.38019478463593 352.51584489621405L320.3479856897794 352.51584489621405L320.3479856897794 337.39348719813023L336.38019478463593 337.39348719813023L336.38019478463593 302.8191341207686L353.79286806769915 302.8191341207686L353.79286806769915 337.39348719813023L389.2456983557379 337.39348719813023L389.2456983557379 352.51584489621405L353.79286806769915 352.51584489621405L353.79286806769915 406.2911998640887Q353.79286806769915 418.2761389526115 354.79684202275865 424.92746640488076Q355.83219016391376 431.57879385714995 359.2206022622396 434.30834804746803Q362.6090143605654 437.0065280516904 369.82507716255566 437.0065280516904L369.82507716255566 437.0065280516904Q372.0840185614395 437.0065280516904 375.69204996243457 436.7869087490211Q379.3000813634297 436.5672894463519 383.0336095088072 436.2221733993002Q386.7671376541847 435.87705735224847 389.71631114717206 435.6574380495792L389.71631114717206 435.6574380495792L390.84578184661393 450.3405571423244Q387.67698905095745 450.779795747663 383.3787255558589 451.34453109738394Q379.0804620607604 451.9092664471049 374.90769531004435 452.37987923853905Q370.7349285593283 452.8191178438776 367.785755066341 452.8191178438776Z " fill="#000000" transform="matrix(0.6616199480137295,0,0,0.6616199480137295,0,50.02733457646096)"/><path d="M648.8710644165927 452.8191153317403L648.8710644165927 452.8191153317403Q638.1670010546284 452.8191153317403 631.8704931946494 449.52775895038764Q625.6026058249431 446.236402569035 622.9122797393156 438.0795628413349Q620.2219536536883 429.9513436039075 620.2219536536883 415.1259296426842L620.2219536536883 415.1259296426842L620.2219536536883 361.3194079301363L605.5968831243733 361.3194079301363L605.5968831243733 347.5243316187278L620.2219536536883 347.5243316187278L620.2219536536883 315.9845513382875L636.1063257549989 315.9845513382875L636.1063257549989 347.5243316187278L668.4474797630728 347.5243316187278L668.4474797630728 361.3194079301363L636.1063257549989 361.3194079301363L636.1063257549989 410.3749282574273Q636.1063257549989 421.30795554157265 637.0221814437232 427.3754994793706Q637.96665762272 433.4430434171685 641.0576705721642 435.93302607088754Q644.1486835216085 438.39438823433386 650.7313962843139 438.39438823433386L650.7313962843139 438.39438823433386Q652.7920715839432 438.39438823433386 656.0834279652959 438.1940448024254Q659.3747843466485 437.993701370517 662.7806226890918 437.67887597751803Q666.1864610315349 437.3640505845191 668.8767871171624 437.1637071526107L668.8767871171624 437.1637071526107L669.9071247669772 450.55809660020236Q667.0164552494414 450.95878346401923 663.0954480820908 451.4739522889266Q659.1744409147402 451.989121113834 655.3679157084802 452.4184284679235Q651.5613905022201 452.8191153317403 648.8710644165927 452.8191153317403ZM709.8613291875712 452.61877189983187L709.8613291875712 452.61877189983187Q695.6655660123458 452.61877189983187 688.2242385414615 444.57641413322233Q680.8115315608497 436.5340563666128 680.8115315608497 421.0789916193916L680.8115315608497 421.0789916193916Q680.8115315608497 411.0045790434252 684.3318518643836 404.59358922235566Q687.8235516776447 398.21121989155876 694.9214332652573 394.80538154911557Q702.0479353431427 391.42816369694503 712.5516552731984 390.5981694790387L712.5516552731984 390.5981694790387L744.2917789855472 387.50715652959445L744.2917789855472 378.6348045450786Q744.2917789855472 368.1310846150227 739.6552595613808 363.8093905838553Q735.0187401372146 359.4876965526879 725.9460447207902 359.4876965526879L725.9460447207902 359.4876965526879Q720.7943564717165 359.4876965526879 713.6964748841038 359.8883834165047Q706.5699728062185 360.2890702803216 699.5579526894237 360.9187210663195Q692.5745530629015 361.5483718523174 687.1939008916468 362.14940214804267L687.1939008916468 362.14940214804267L686.392527164013 349.9856937821741Q691.3152514909057 348.9553561323594 698.3272716077006 347.92501848254466Q705.3392917244954 346.8946808327299 712.9523421370153 346.1791685759141Q720.5940130398081 345.4636563190983 726.9763823706049 345.4636563190983L726.9763823706049 345.4636563190983Q738.710783382384 345.4636563190983 746.1521108532683 349.0698380934499Q753.56481783388 352.67601986780153 756.9706561763231 360.0028653775953Q760.3478740284937 367.3010903971164 760.3478740284937 378.6348045450786L760.3478740284937 378.6348045450786L760.3478740284937 430.7813378218138Q760.7771813825831 435.3033752848896 763.9540558028453 437.3640505845191Q767.1595507133801 439.42472588414864 772.1108955305455 440.0543766701465L772.1108955305455 440.0543766701465L771.4812447445476 452.61877189983187Q768.5905752270118 452.61877189983187 765.928869631657 452.4184284679235Q763.2385435460295 452.21808503601505 760.863042853401 451.70291621110766Q758.5161626510452 451.1877473862003 756.2265234292348 450.55809660020236L756.2265234292348 450.55809660020236Q753.56481783388 449.52775895038764 751.1893171412515 448.09673443675604Q748.813816448623 446.63708943285184 746.5527977170851 444.57641413322233L746.5527977170851 444.57641413322233Q742.6317905497345 446.236402569035 736.5642466119367 448.09673443675604Q730.4680821838662 449.92844581420445 723.5705440281619 451.2736088570182Q716.6730058724576 452.61877189983187 709.8613291875712 452.61877189983187ZM712.5516552731984 439.2243824522402L712.5516552731984 439.2243824522402Q718.1040303860892 439.2243824522402 724.0857128530691 438.1940448024254Q730.0673953200493 437.1637071526107 735.4194270010313 435.7326826389791Q740.7714586820135 434.27303763507484 744.2917789855472 433.04235655335174L744.2917789855472 433.04235655335174L744.2917789855472 399.4419009732819L714.4119871409197 402.3325704908178Q705.1389482925869 403.16256470872406 701.1034591641459 407.6846021717999Q697.0965905259774 412.2352601251484 697.0965905259774 420.67830475557474L697.0965905259774 420.67830475557474Q697.0965905259774 429.3216928179096 701.017597693328 434.27303763507484Q704.9386048606785 439.2243824522402 712.5516552731984 439.2243824522402ZM825.4881098890038 452.61877189983187L825.4881098890038 452.61877189983187Q820.9374519356553 452.61877189983187 814.6695645659489 452.3039465068329Q808.3730567059698 451.989121113834 801.990687375173 451.3880908181087Q795.6083180443762 450.7584400321108 790.6569732272109 450.3577531682939L790.6569732272109 450.3577531682939L790.6569732272109 302.8191258128769L806.7130682701574 302.8191258128769L806.7130682701574 352.4756764358931Q810.0330451417825 350.81568800008046 814.9557694686752 349.27018152535834Q819.9071142858405 347.7246750506362 825.5739713598217 346.6084759300036Q831.2408284338027 345.4636563190983 836.3925166828766 345.4636563190983L836.3925166828766 345.4636563190983Q850.416556916466 345.4636563190983 858.745119585802 350.72982652926254Q867.1023027454104 355.9673762491542 870.708484519762 367.41557235820693Q874.3146662941136 378.835147976987 874.3146662941136 397.38122567365247L874.3146662941136 397.38122567365247Q874.3146662941136 417.9879786699474 869.8784903018558 430.065825564998Q865.4423143095977 442.115051969776 854.8527329087241 447.3526016896676Q844.2345310175775 452.61877189983187 825.4881098890038 452.61877189983187ZM825.2591459668228 438.1940448024254L825.2591459668228 438.1940448024254Q839.2831862004124 438.1940448024254 846.1807243561167 433.9582122420759Q853.0782625118208 429.75100017199907 855.4537632044493 420.67830475557474Q857.8292638970778 411.6056093391505 857.8292638970778 397.38122567365247L857.8292638970778 397.38122567365247Q857.8292638970778 384.2158001482418 855.7685885974482 375.97309894972386Q853.7079132978187 367.7303977512059 848.6707070098356 363.8093905838553Q843.6048802315796 359.8883834165047 834.7611487373364 359.8883834165047L834.7611487373364 359.8883834165047Q829.809803920171 359.8883834165047 824.457772239189 360.804239105229Q819.0771200679343 361.7487152842258 814.4406006437679 363.09387832703953Q809.8040812196015 364.41042087958056 806.7130682701574 365.6697224515764L806.7130682701574 365.6697224515764L806.7130682701574 437.1637071526107Q811.0633827915973 437.5643940164275 816.7302398655785 437.87921940942647Q822.3970969395594 438.1940448024254 825.2591459668228 438.1940448024254ZM937.56594979663 452.61877189983187L937.56594979663 452.61877189983187Q921.3095113217752 452.61877189983187 912.0364724734424 447.1522582577592Q902.7634336251098 441.68574461568653 898.9282879285771 429.55065674009063Q895.1217627223169 417.3869483742221 895.1217627223169 397.38122567365247L895.1217627223169 397.38122567365247Q895.1217627223169 378.6348045450786 899.3575952826665 367.2152289262985Q903.5648073527435 355.76703281724576 913.0668101232571 350.615344568172Q922.5401924034983 345.4636563190983 937.794913718811 345.4636563190983L937.794913718811 345.4636563190983Q941.2866135320722 345.4636563190983 946.3238198200553 345.97882514400567Q951.3896465983113 346.49399396891306 956.7416782792933 347.20950622572883Q962.0937099602755 347.92501848254466 966.0147171276261 348.5546692685425L966.0147171276261 348.5546692685425L965.3850663416282 361.7487152842258Q961.893366528367 361.3194079301363 957.3713290652912 360.9187210663195Q952.8206711119427 360.51803420250263 948.4989770807755 360.2032088095037Q944.177283049608 359.8883834165047 941.2866135320722 359.8883834165047L941.2866135320722 359.8883834165047Q929.552212520293 359.8883834165047 923.0553612284058 363.60904715194687Q916.5585099365181 367.3010903971164 913.9826658119813 375.45793012481647Q911.4068216874444 383.5861493622439 911.4068216874444 397.38122567365247L911.4068216874444 397.38122567365247Q911.4068216874444 412.43560355705677 913.6678404189823 421.39381701239057Q915.9288591505202 430.3520304677243 922.33984897159 434.27303763507484Q928.7222183023868 438.1940448024254 941.2866135320722 438.1940448024254L941.2866135320722 438.1940448024254Q944.177283049608 438.1940448024254 948.6134590418659 437.87921940942647Q953.0210145438513 437.5643940164275 957.6575339680177 437.1637071526107Q962.2940533921839 436.7630202887939 965.8143736957176 436.5340563666128L965.8143736957176 436.5340563666128L966.2150605595344 449.7281023822961Q962.0937099602755 450.3577531682939 956.7416782792933 450.95878346401923Q951.3896465983113 451.58843425001714 946.2379583492374 452.10360307492454Q941.0862701001637 452.61877189983187 937.56594979663 452.61877189983187ZM1006.3982289023096 450.55809660020236L990.5424772912714 450.55809660020236L990.5424772912714 302.8191258128769L1006.3982289023096 302.8191258128769L1006.3982289023096 450.55809660020236ZM1076.8904964438016 452.61877189983187L1076.8904964438016 452.61877189983187Q1059.5750998288595 452.61877189983187 1049.9872355875277 446.63708943285184Q1040.399371346196 440.65540696587175 1036.5928461399362 428.52031909027585Q1032.786320933676 416.35661072440735 1032.786320933676 397.81053302774194L1032.786320933676 397.81053302774194Q1032.786320933676 380.0944495489828 1036.9935330037529 368.5317714788396Q1041.2293655641024 356.9977138989689 1050.9030912762519 351.24499535416993Q1060.605437478674 345.4636563190983 1076.8904964438016 345.4636563190983L1076.8904964438016 345.4636563190983Q1093.3758988408376 345.4636563190983 1103.049624552987 351.24499535416993Q1112.723350265137 356.9977138989689 1116.959182825486 368.5317714788396Q1121.1950153858356 380.0944495489828 1121.1950153858356 397.81053302774194L1121.1950153858356 397.81053302774194Q1121.1950153858356 416.35661072440735 1117.3598696893032 428.52031909027585Q1113.553344483043 440.65540696587175 1103.9654802417112 446.63708943285184Q1094.4062364906526 452.61877189983187 1076.8904964438016 452.61877189983187ZM1076.8904964438016 438.82369558842333L1076.8904964438016 438.82369558842333Q1088.8252408874891 438.82369558842333 1094.8069233544693 434.5878630280738Q1100.7886058214494 430.3520304677243 1102.7347991599881 421.30795554157265Q1104.7096129888 412.2352601251484 1104.7096129888 397.81053302774194L1104.7096129888 397.81053302774194Q1104.7096129888 383.5861493622439 1102.219630335081 375.1431047318175Q1099.7582681716344 366.7000601013911 1093.7765857046547 362.979396365949Q1087.7949032376746 359.25873263050687 1076.8904964438016 359.25873263050687L1076.8904964438016 359.25873263050687Q1066.1578125915648 359.25873263050687 1060.090268653767 362.979396365949Q1053.9941042256964 366.7000601013911 1051.5327420622498 375.1431047318175Q1049.0713798988036 383.5861493622439 1049.0713798988036 397.81053302774194L1049.0713798988036 397.81053302774194Q1049.0713798988036 412.2352601251484 1051.0175732373427 421.30795554157265Q1052.9637665758814 430.3520304677243 1058.9454490428616 434.5878630280738Q1064.9271315098417 438.82369558842333 1076.8904964438016 438.82369558842333ZM1178.4646164213723 452.61877189983187L1178.4646164213723 452.61877189983187Q1173.742235526388 452.61877189983187 1167.0450408025922 451.989121113834Q1160.347846078796 451.3880908181087 1153.736512825818 450.44361463911184Q1147.153800063113 449.52775895038764 1142.002111814039 448.69776473248135L1142.002111814039 448.69776473248135L1142.8321060319454 434.90268842107275Q1147.983794281019 435.50371871679806 1154.452025082634 436.3337129347044Q1160.9488763745212 437.1637071526107 1167.13090227341 437.67887597751803Q1173.3129281722986 438.1940448024254 1177.0335919077406 438.1940448024254L1177.0335919077406 438.1940448024254Q1185.476636538167 438.1940448024254 1191.0290116510573 436.6485383277033Q1196.6100072542208 435.1030318529812 1199.5006767717564 431.38236811753904Q1202.3627257990197 427.69032487236956 1202.3627257990197 420.8786481874832L1202.3627257990197 420.8786481874832Q1202.3627257990197 415.72695993840944 1200.2161890285724 412.83629042087364Q1198.041031767852 409.97424139361044 1192.1738312619627 408.11390952588937Q1186.3066307560734 406.2535776581683 1175.1732600400196 404.59358922235566L1175.1732600400196 404.59358922235566Q1163.6392024601487 402.76187784490725 1155.9116700865384 399.9570697981893Q1148.1841377129276 397.18088224174403 1144.4634739774856 391.62850712885347Q1140.7714307323158 386.04751152569025 1140.7714307323158 375.74413502754277L1140.7714307323158 375.74413502754277Q1140.7714307323158 364.2100774476721 1146.123462413298 357.62736468496684Q1151.4754940942803 351.0160314319889 1160.033020685797 348.2398438755436Q1168.5905472773143 345.4636563190983 1177.8635861256466 345.4636563190983L1177.8635861256466 345.4636563190983Q1183.616304670446 345.4636563190983 1190.5138428261503 346.0933071050962Q1197.4400014721268 346.6943374008215 1204.0227142348322 347.6388135798183Q1210.6054269975375 348.5546692685425 1215.3564283827945 349.38466348644886L1215.3564283827945 349.38466348644886L1214.9557415189774 363.1797397978574Q1210.0043967018123 362.3497455799511 1203.3930634488343 361.6342333231353Q1196.810350686129 360.9187210663195 1190.2276379234236 360.4035522414121Q1183.616304670446 359.8883834165047 1178.6649598532804 359.8883834165047L1178.6649598532804 359.8883834165047Q1172.4829339543921 359.8883834165047 1167.5602096274993 361.23354645931846Q1162.6088648103341 362.57870950213214 1159.718195292798 365.8700658834848Q1156.8275257752625 369.1614222648375 1156.8275257752625 375.1431047318175L1156.8275257752625 375.1431047318175Q1156.8275257752625 379.66514219489335 1158.888201074892 382.4413297513386Q1160.9488763745212 385.24613779805657 1166.7302154095933 387.077849175505Q1172.4829339543921 388.93818104322605 1183.4159612385374 390.7985129109471L1183.4159612385374 390.7985129109471Q1196.1806999001315 392.85918821057663 1203.9082322737418 395.95020116002087Q1211.6357646473525 399.0412141094651 1215.156084950886 404.59358922235566Q1218.6477847641472 410.1745848255189 1218.6477847641472 420.2776178917579L1218.6477847641472 420.2776178917579Q1218.6477847641472 432.2123623354454 1213.8109219080725 439.3388644133307Q1208.9740590519978 446.4367460009434 1200.015845596664 449.52775895038764Q1191.0290116510573 452.61877189983187 1178.4646164213723 452.61877189983187ZM1278.8366758074917 452.61877189983187L1278.8366758074917 452.61877189983187Q1263.3816110602706 452.61877189983187 1254.3947771146645 446.63708943285184Q1245.4365636593307 440.65540696587175 1241.51555649198 428.9210059540927Q1237.6231698149022 417.1866049423137 1237.6231698149022 399.670864895463L1237.6231698149022 399.670864895463Q1237.6231698149022 380.0944495489828 1242.9752014958844 368.2455665761132Q1248.3272331768662 356.3966836032437 1258.0009588890161 350.930169961171Q1267.7033050914383 345.4636563190983 1280.8973511071213 345.4636563190983L1280.8973511071213 345.4636563190983Q1301.5041041034165 345.4636563190983 1312.007824033472 356.91185242815106Q1322.5115439635283 368.33142804693114 1322.5115439635283 393.6891824284829L1322.5115439635283 393.6891824284829L1321.6815497456219 405.8528907943515L1253.879608289757 405.8528907943515Q1254.1085722119383 421.9089858372979 1259.8612907567372 430.1516870358159Q1265.6426297918088 438.39438823433386 1280.6683871849405 438.39438823433386L1280.6683871849405 438.39438823433386Q1286.449726220012 438.39438823433386 1293.3472643757163 438.0795628413349Q1300.2448025314206 437.79335793860855 1307.0564792163068 437.3640505845191Q1313.8681559011934 436.96336372070226 1318.5905367961777 436.5340563666128L1318.5905367961777 436.5340563666128L1319.019844150267 449.1270720865708Q1314.0684993331015 449.92844581420445 1306.9419972552164 450.7584400321108Q1299.8441156676035 451.58843425001714 1292.4314086869922 452.10360307492454Q1285.0187017063804 452.61877189983187 1278.8366758074917 452.61877189983187ZM1253.879608289757 392.85918821057663L1253.879608289757 392.85918821057663L1306.426828430309 392.85918821057663Q1306.426828430309 373.91242365009435 1300.359284492511 366.3852347083922Q1294.2917405547132 358.85804576669 1280.8973511071213 358.85804576669L1280.8973511071213 358.85804576669Q1272.225342554514 358.85804576669 1266.243660087534 362.2638841091332Q1260.2905981108265 365.6697224515764 1257.0851032002915 373.082429432188Q1253.879608289757 380.49513641279964 1253.879608289757 392.85918821057663Z " fill="#ffffff" transform="matrix(0.6616199480137295,0,0,0.6616199480137295,0,50.02733457646096)"/></g></svg>